<!--?xml version="1.0" standalone="no"?-->
              <svg id="sw-js-blob-svg" viewBox="0 0 100 100" xmlns="http://www.w3.org/2000/svg" version="1.1">
                    <defs> 
                        <linearGradient id="sw-gradient" x1="0" x2="1" y1="1" y2="0">
                            <stop id="stop1" stop-color="rgba(0, 0, 0, 1)" offset="0%"></stop>
                            <stop id="stop2" stop-color="rgba(0, 0, 0, 1)" offset="100%"></stop>
                        </linearGradient>
                    </defs>
                <path fill="url(#sw-gradient)" d="M25.5,-29.6C31,-25.9,31.7,-15.8,32.2,-6.6C32.7,2.5,32.9,10.8,30.1,19.1C27.4,27.4,21.7,35.7,14.9,36.1C8.1,36.4,0.2,28.8,-3.3,22C-6.8,15.1,-6,9,-11.5,4.3C-17.1,-0.5,-29.1,-3.9,-29.3,-5.6C-29.5,-7.4,-17.9,-7.4,-11.1,-10.9C-4.2,-14.4,-2.1,-21.2,4,-26C10.1,-30.7,20.1,-33.4,25.5,-29.6Z" width="100%" height="100%" transform="translate(50 50)" stroke-width="0" style="transition: all 0.3s ease 0s;" stroke="url(#sw-gradient)"></path>
              </svg>