<!--?xml version="1.0" standalone="no"?-->
              <svg id="sw-js-blob-svg" viewBox="0 0 100 100" xmlns="http://www.w3.org/2000/svg" version="1.1">
                    <defs> 
                        <linearGradient id="sw-gradient" x1="0" x2="1" y1="1" y2="0">
                            <stop id="stop1" stop-color="rgba(0, 0, 0, 1)" offset="0%"></stop>
                            <stop id="stop2" stop-color="rgba(0, 0, 0, 1)" offset="100%"></stop>
                        </linearGradient>
                    </defs>
                <path fill="url(#sw-gradient)" d="M21.6,-29C29.1,-28.8,37.2,-24.7,37.3,-18.7C37.4,-12.7,29.5,-4.8,26,2.2C22.5,9.1,23.5,15.2,22.1,22C20.6,28.8,16.8,36.5,10.9,39C5.1,41.5,-2.8,38.9,-9.7,35.7C-16.7,32.5,-22.7,28.7,-26.8,23.5C-31,18.3,-33.3,11.7,-34.4,4.9C-35.5,-2,-35.4,-9.1,-32.1,-13.9C-28.7,-18.8,-22.1,-21.4,-16.2,-22.4C-10.3,-23.4,-5.1,-22.9,0.9,-24.3C7,-25.8,14.1,-29.3,21.6,-29Z" width="100%" height="100%" transform="translate(50 50)" stroke-width="0" style="transition: all 0.3s ease 0s;" stroke="url(#sw-gradient)"></path>
              </svg>