<!--?xml version="1.0" standalone="no"?-->
              <svg id="sw-js-blob-svg" viewBox="0 0 100 100" xmlns="http://www.w3.org/2000/svg" version="1.1">
                    <defs> 
                        <linearGradient id="sw-gradient" x1="0" x2="1" y1="1" y2="0">
                            <stop id="stop1" stop-color="rgba(0, 0, 0, 1)" offset="0%"></stop>
                            <stop id="stop2" stop-color="rgba(0, 0, 0, 1)" offset="100%"></stop>
                        </linearGradient>
                    </defs>
                <path fill="url(#sw-gradient)" d="M26,-30.2C32.8,-30.9,36.8,-22.1,34.7,-14.6C32.7,-7,24.6,-0.8,20.8,5.5C17,11.8,17.5,18.3,14.7,24.3C12,30.3,6,35.8,-1.5,37.9C-9.1,40,-18.1,38.7,-21.4,32.9C-24.8,27.1,-22.3,16.8,-20,9.9C-17.6,2.9,-15.2,-0.6,-14.3,-4.9C-13.3,-9.2,-13.7,-14.3,-11.5,-15.1C-9.4,-15.9,-4.7,-12.6,2.5,-16C9.6,-19.4,19.2,-29.5,26,-30.2Z" width="100%" height="100%" transform="translate(50 50)" stroke-width="0" style="transition: 0.3s;"></path>
              </svg>